<svg width="15" height="13" viewBox="0 0 15 13" fill="none" xmlns="http://www.w3.org/2000/svg">
<path d="M0.901583 7.55293C0.962958 7.56289 1.02507 7.56748 1.08722 7.56668L11.6694 7.56668L11.4387 7.674C11.2131 7.78076 11.0079 7.92605 10.8323 8.1033L7.86478 11.0708C7.47395 11.4439 7.40828 12.0441 7.70916 12.4929C8.05934 12.9711 8.73088 13.0749 9.20915 12.7247C9.24778 12.6964 9.28451 12.6656 9.31902 12.6324L14.6852 7.26617C15.1046 6.84727 15.105 6.16774 14.6861 5.74837C14.6858 5.7481 14.6855 5.7478 14.6852 5.74753L9.31902 0.381322C8.89931 -0.0372095 8.21978 -0.0362701 7.80122 0.383434C7.76828 0.41647 7.73753 0.451618 7.70916 0.488646C7.40828 0.937428 7.47395 1.53761 7.86478 1.91069L10.8269 4.88357C10.9844 5.0412 11.1654 5.17338 11.3635 5.2753L11.6855 5.42019L1.14628 5.42019C0.598022 5.39983 0.117008 5.78281 0.0140104 6.32172C-0.0808706 6.9068 0.316498 7.45801 0.901583 7.55293Z" fill="white"/>
</svg>
