<svg width="15" height="13" viewBox="0 0 15 13" fill="none" xmlns="http://www.w3.org/2000/svg">
<path d="M14.0984 5.44707C14.037 5.43711 13.9749 5.43252 13.9128 5.43332H3.33058L3.56133 5.326C3.78688 5.21924 3.99207 5.07395 4.16771 4.8967L7.13522 1.92919C7.52605 1.5561 7.59172 0.955925 7.29084 0.507142C6.94066 0.0289117 6.26912 -0.0749244 5.79085 0.275254C5.75222 0.303561 5.71549 0.334417 5.68098 0.36762L0.31477 5.73383C-0.104599 6.15273 -0.104968 6.83226 0.313932 7.25163C0.3142 7.2519 0.314502 7.2522 0.31477 7.25247L5.68098 12.6187C6.10069 13.0372 6.78022 13.0363 7.19878 12.6166C7.23172 12.5835 7.26247 12.5484 7.29084 12.5114C7.59172 12.0626 7.52605 11.4624 7.13522 11.0893L4.17308 8.11643C4.01561 7.9588 3.83457 7.82662 3.63645 7.7247L3.31448 7.57981H13.8537C14.402 7.60017 14.883 7.21719 14.986 6.67828C15.0809 6.0932 14.6835 5.54199 14.0984 5.44707Z" fill="white"/>
</svg>
