<svg width="16" height="16" viewBox="0 0 16 16" fill="none" xmlns="http://www.w3.org/2000/svg">
<path d="M7.02361 7.37596C7.24761 7.02396 7.37561 6.62396 7.35961 6.17596C7.34361 4.99196 6.35161 4.06396 5.18361 4.06396H1.87161C1.71161 4.06396 1.59961 4.19196 1.59961 4.33596V11.568C1.59961 11.728 1.72761 11.84 1.87161 11.84H5.55161C6.91161 11.84 8.04761 10.752 8.04761 9.37596C8.04761 8.55996 7.64761 7.82396 7.02361 7.37596ZM3.03961 5.50397H5.19961C5.58361 5.50397 5.90361 5.82396 5.90361 6.20796C5.90361 6.59196 5.58361 6.91196 5.19961 6.91196H3.03961V5.50397ZM5.59961 10.416H3.03961V8.36796H5.59961C6.15961 8.36796 6.62361 8.83196 6.62361 9.39196C6.62361 9.95196 6.15961 10.416 5.59961 10.416Z" fill="white"/>
<path d="M14.3839 8.87997C14.3839 7.19997 13.0559 5.82397 11.4239 5.82397C9.79187 5.82397 8.46387 7.19997 8.46387 8.87997C8.46387 10.56 9.79187 11.936 11.4239 11.936C12.4159 11.936 13.3439 11.424 13.8879 10.576C13.9519 10.464 14.0159 10.352 14.0799 10.24C14.1279 10.16 14.0639 10.064 13.9679 10.064H12.5119C12.4799 10.064 12.4479 10.08 12.4319 10.096C12.1599 10.368 11.8239 10.496 11.4399 10.496C10.7199 10.496 10.1119 9.95197 9.95187 9.23197H14.1119C14.2719 9.23197 14.3999 9.10397 14.3999 8.94397L14.3839 8.87997ZM11.4239 7.26397C11.9519 7.26397 12.4159 7.55197 12.6879 7.99997H10.1439C10.4159 7.56797 10.8959 7.26397 11.4239 7.26397Z" fill="white"/>
<path d="M12.656 5.47192H10.016C9.88799 5.47192 9.79199 5.37592 9.79199 5.24792V4.59192C9.79199 4.46392 9.88799 4.36792 10.016 4.36792H12.64C12.768 4.36792 12.864 4.46392 12.864 4.59192V5.24792C12.88 5.35992 12.768 5.47192 12.656 5.47192Z" fill="white"/>
</svg>
