<svg width="40" height="40" viewBox="0 0 40 40" fill="none" xmlns="http://www.w3.org/2000/svg">
<path d="M31.054 17.1418C30.6212 17.1418 30.2073 17.2232 29.8256 17.3702C29.4035 15.9544 28.0903 14.9188 26.5392 14.9188C26.093 14.9188 25.6669 15.0054 25.2756 15.1611C24.8195 13.8023 23.5349 12.8201 22.0243 12.8201C21.6449 12.8201 21.2802 12.8829 20.9388 12.9972V9.36674C20.9388 7.47588 19.4004 5.93744 17.5095 5.93744C15.6185 5.93744 14.0802 7.4758 14.0802 9.36674V24.1998L12.7408 22.2117L12.7097 22.173C11.3971 20.5414 9.08799 20.1788 7.33854 21.3297C6.42377 21.9315 5.804 22.8547 5.59346 23.9292C5.38439 24.996 5.60518 26.0771 6.21518 26.9759L12.1844 36.385L12.2079 36.4207C13.7473 38.662 16.2895 40 19.0085 40H25.7078C30.5467 40 34.4833 36.0633 34.4833 31.2245V20.5712C34.4833 18.6802 32.9449 17.1418 31.054 17.1418ZM32.1395 31.2245C32.1395 34.771 29.2542 37.6563 25.7078 37.6563H19.0085C17.0687 37.6563 15.2547 36.7051 14.1516 35.1107L8.18385 25.7039L8.16033 25.6682C7.89986 25.289 7.80518 24.8315 7.89361 24.38C7.98213 23.9286 8.24252 23.5406 8.62689 23.2878C9.34986 22.8121 10.3003 22.9518 10.8562 23.6087L16.4242 31.874V9.36681C16.4242 8.7683 16.9111 8.28127 17.5097 8.28127C18.1083 8.28127 18.5953 8.76822 18.5953 9.36681V21.0774H20.939V16.2494C20.939 15.6509 21.426 15.1638 22.0246 15.1638C22.6231 15.1638 23.1101 15.6508 23.1101 16.2494V21.0774H25.4538V18.3481C25.4538 17.7495 25.9408 17.2625 26.5394 17.2625C27.138 17.2625 27.6249 17.7495 27.6249 18.3481V21.0774H29.9687V20.6636V20.5711C29.9687 19.9725 30.4556 19.4855 31.0542 19.4855C31.6528 19.4855 32.1398 19.9724 32.1398 20.5711V31.2245H32.1395Z" fill="#58A771"/>
<path d="M18.616 0H16.2722V3.24219H18.616V0Z" fill="#58A771"/>
<path d="M22.3033 1.38409L20.1194 3.7804L21.8517 5.35915L24.0356 2.96284L22.3033 1.38409Z" fill="#58A771"/>
<path d="M25.8279 6.46705L22.5996 6.76727L22.8166 9.10094L26.0449 8.80072L25.8279 6.46705Z" fill="#58A771"/>
<path d="M12.513 1.38286L10.7808 2.96161L12.9647 5.35791L14.697 3.77916L12.513 1.38286Z" fill="#58A771"/>
<path d="M8.98827 6.46803L8.77124 8.8017L11.9995 9.10192L12.2165 6.76825L8.98827 6.46803Z" fill="#58A771"/>
</svg>
