<svg width="15" height="15" viewBox="0 0 15 15" fill="none" xmlns="http://www.w3.org/2000/svg">
<path d="M1.42193 14.9059C1.05417 14.9273 0.692494 14.805 0.413167 14.5649C-0.137722 14.0108 -0.137722 13.1157 0.413167 12.5616L12.4758 0.498872C13.0488 -0.0372783 13.9479 -0.00747402 14.484 0.565499C14.9689 1.08364 14.9971 1.88002 14.5502 2.43119L2.41647 14.5649C2.14074 14.8016 1.78487 14.9236 1.42193 14.9059Z" fill="white"/>
<path d="M13.4704 14.906C13.0977 14.9044 12.7405 14.7564 12.4758 14.4939L0.413113 2.43118C-0.0972569 1.83519 -0.0278695 0.938249 0.568124 0.427832C1.10006 -0.0277018 1.88457 -0.0277018 2.41646 0.427832L14.5502 12.4905C15.123 13.0268 15.1526 13.926 14.6164 14.4988C14.595 14.5216 14.573 14.5436 14.5502 14.565C14.2531 14.8233 13.8621 14.9468 13.4704 14.906Z" fill="white"/>
</svg>
