<svg width="40" height="40" viewBox="0 0 40 40" fill="none" xmlns="http://www.w3.org/2000/svg">
<g clip-path="url(#clip0_463_598)">
<path d="M29.0909 15.4534C29.0909 15.0942 28.8795 14.7686 28.5511 14.6224L20.3693 10.9863C20.134 10.8834 19.8661 10.8834 19.6308 10.9863L11.449 14.6224C11.1207 14.7686 10.9089 15.0942 10.9092 15.4534V24.5443C10.9089 24.9038 11.1207 25.2294 11.449 25.3753L19.6308 29.0118C19.8661 29.1158 20.1343 29.1158 20.3693 29.0118L28.5511 25.3753C28.8795 25.2294 29.0909 24.9038 29.0909 24.5443V15.4534ZM20.0001 12.8115L25.9431 15.4534L20.0001 18.0956L14.0571 15.4534L20.0001 12.8115ZM12.7274 16.8526L19.0909 19.6807V26.7822L12.7274 23.9535V16.8526ZM20.9092 26.7825V19.6807L27.2727 16.8526V23.9526L20.9092 26.7825Z" fill="#58A771"/>
<path d="M29.3572 10.6417C29.7119 10.9966 30.2871 10.9969 30.642 10.6423C30.6423 10.642 30.6423 10.642 30.6426 10.6417L32.7273 8.55737V9.99902C32.7273 10.501 33.1341 10.9081 33.6361 10.9081C34.1384 10.9081 34.5452 10.501 34.5452 9.99902V6.36255C34.5452 5.86053 34.1384 5.45374 33.6361 5.45374H29.9999C29.4979 5.45374 29.0908 5.86053 29.0908 6.36255C29.0908 6.86487 29.4979 7.27167 29.9999 7.27167H31.4416L29.3572 9.35632C29.0023 9.71094 29.002 10.2862 29.3566 10.6411C29.3566 10.6414 29.3569 10.6414 29.3572 10.6417Z" fill="#58A771"/>
<path d="M6.3634 10.9081C6.86572 10.9081 7.27252 10.501 7.27252 9.99902V8.55737L9.35718 10.6417C9.7182 10.9905 10.2938 10.9805 10.6426 10.6194C10.9828 10.267 10.9828 9.7085 10.6426 9.35632L8.55823 7.27167H9.99988C10.5019 7.27167 10.909 6.86487 10.909 6.36255C10.909 5.86053 10.5019 5.45374 9.99988 5.45374H6.3634C5.86139 5.45374 5.45459 5.86053 5.45459 6.36255V9.99902C5.45428 10.501 5.86139 10.9081 6.3634 10.9081Z" fill="#58A771"/>
<path d="M33.6361 29.0899C33.1341 29.0899 32.7273 29.497 32.7273 29.999V31.4407L30.6426 29.3563C30.2816 29.0075 29.7061 29.0173 29.3572 29.3786C29.0167 29.7308 29.0167 30.2892 29.3572 30.6417L31.4416 32.7261H29.9999C29.4979 32.7261 29.0908 33.1332 29.0908 33.6352C29.0908 34.1372 29.4979 34.5443 29.9999 34.5443H33.6361C34.1384 34.5443 34.5452 34.1372 34.5452 33.6352V29.999C34.5452 29.497 34.1384 29.0899 33.6361 29.0899Z" fill="#58A771"/>
<path d="M10.6426 29.3563C10.288 29.0014 9.71271 29.0011 9.35779 29.3557C9.35748 29.3557 9.35748 29.356 9.35718 29.3563L7.27283 31.4407V29.999C7.27283 29.497 6.86572 29.0899 6.36371 29.0899C5.86169 29.0899 5.45459 29.497 5.45459 29.999V33.6352C5.45459 34.1372 5.86169 34.5443 6.36371 34.5443H9.99988C10.5019 34.5443 10.909 34.1372 10.909 33.6352C10.909 33.1332 10.5019 32.7264 9.99988 32.7264H8.55823L10.6426 30.6417C10.9975 30.2871 10.9978 29.7119 10.6432 29.3569C10.6429 29.3566 10.6429 29.3563 10.6426 29.3563Z" fill="#58A771"/>
<path d="M17.9153 4.27819L19.0909 3.10265V6.36254C19.0909 6.86486 19.498 7.27166 20 7.27166C20.502 7.27166 20.9091 6.86486 20.9091 6.36254V3.10265L22.0844 4.27819C22.4457 4.62701 23.0209 4.61694 23.3701 4.25591C23.7103 3.90343 23.7103 3.34496 23.3701 2.99279L20.6427 0.265434C20.2881 -0.089485 19.7128 -0.0897903 19.3579 0.264824C19.3576 0.265129 19.3576 0.265129 19.3573 0.265434L16.6299 2.99279C16.2811 3.35381 16.2912 3.92937 16.6522 4.27819C17.0047 4.61846 17.5632 4.61846 17.9153 4.27819Z" fill="#58A771"/>
<path d="M22.0847 35.7198L20.9091 36.8954V33.6355C20.9091 33.1332 20.502 32.7264 20 32.7264C19.498 32.7264 19.0909 33.1332 19.0909 33.6355V36.8954L17.9154 35.7198C17.5543 35.371 16.9788 35.3811 16.63 35.7421C16.2897 36.0946 16.2897 36.6531 16.63 37.0056L19.3573 39.7326C19.7119 40.0875 20.2872 40.0878 20.6424 39.7332C20.6424 39.7329 20.6427 39.7329 20.6427 39.7326L23.3701 37.0056C23.7189 36.6442 23.7088 36.0687 23.3478 35.7198C22.9953 35.3796 22.4368 35.3796 22.0847 35.7198Z" fill="#58A771"/>
<path d="M3.1036 20.9082H6.36349C6.86581 20.9082 7.27261 20.5011 7.27261 19.999C7.27261 19.497 6.86581 19.0899 6.36349 19.0899H3.1036L4.27914 17.9144C4.62795 17.5534 4.61788 16.9778 4.25686 16.629C3.90438 16.2887 3.34591 16.2887 2.99374 16.629L0.26638 19.3563C-0.088539 19.711 -0.0888442 20.2862 0.26577 20.6411C0.266075 20.6414 0.266075 20.6414 0.26638 20.6417L2.99374 23.3691C3.34225 23.7301 3.91781 23.7402 4.27914 23.3914C4.64016 23.0426 4.65023 22.467 4.30141 22.106C4.29409 22.0983 4.28677 22.0907 4.27914 22.0834L3.1036 20.9082Z" fill="#58A771"/>
<path d="M39.7335 19.3563L37.0062 16.629C36.6451 16.2802 36.0696 16.2902 35.7208 16.6512C35.3805 17.0037 35.3805 17.5622 35.7208 17.9144L36.896 19.0899H33.6361C33.1341 19.0899 32.7273 19.497 32.7273 19.999C32.7273 20.501 33.1341 20.9081 33.6361 20.9081H36.896L35.7208 22.0837C35.3597 22.4322 35.3497 23.0078 35.6985 23.3691C36.0473 23.7301 36.6226 23.7402 36.9839 23.3914C36.9915 23.384 36.9988 23.3767 37.0062 23.3691L39.7335 20.6417C40.0884 20.2871 40.0887 19.7119 39.7341 19.3569C39.7338 19.3566 39.7338 19.3566 39.7335 19.3563Z" fill="#58A771"/>
</g>
<defs>
<clipPath id="clip0_463_598">
<rect width="40" height="40" fill="white" transform="translate(0 -0.000976562)"/>
</clipPath>
</defs>
</svg>
