<svg width="16" height="16" viewBox="0 0 16 16" fill="none" xmlns="http://www.w3.org/2000/svg">
<g clip-path="url(#clip0_995_512)">
<path d="M14.9273 3.9843C14.2119 2.75869 13.2415 1.78829 12.0159 1.07292C10.79 0.357592 9.4518 0 8.00024 0C6.54882 0 5.21021 0.357592 3.98456 1.07292C2.75883 1.78818 1.78844 2.75858 1.07303 3.9843C0.357592 5.2101 0 6.54871 0 8.00002C0 9.4514 0.357702 10.7898 1.07292 12.0157C1.78829 13.2413 2.75869 14.2117 3.98441 14.9271C5.21021 15.6424 6.54871 16 8.00009 16C9.45148 16 10.7901 15.6424 12.0158 14.9271C13.2415 14.2119 14.2119 13.2413 14.9272 12.0157C15.6424 10.7899 16 9.45133 16 8.00002C16 6.54856 15.6424 5.20992 14.9273 3.9843ZM8.00013 1.16669C9.72227 1.16669 11.2258 1.73612 12.5105 2.87493L12.3803 3.0571C12.3282 3.13015 12.198 3.27061 11.9897 3.47905C11.7814 3.68731 11.554 3.88535 11.3075 4.07282C11.0608 4.26035 10.7259 4.47386 10.3021 4.71346C9.8785 4.95306 9.42714 5.16325 8.94791 5.34378C8.14935 3.87142 7.29527 2.54503 6.38551 1.36455C6.93421 1.23262 7.47237 1.16669 8.00013 1.16669ZM2.64606 3.76017C3.31268 2.92006 4.12506 2.27413 5.08349 1.8228C5.94458 2.96863 6.79174 4.28122 7.62513 5.76033C5.51402 6.31589 3.40991 6.59369 1.31267 6.59358C1.53501 5.54503 1.97944 4.60047 2.64606 3.76017ZM1.62505 10.4638C1.31945 9.68254 1.16669 8.86122 1.16669 8.00002C1.16669 7.90275 1.17027 7.82981 1.17712 7.78125C3.69114 7.78125 6.02803 7.45843 8.18773 6.81246C8.41 7.24299 8.59404 7.62842 8.73987 7.96879C8.71174 7.98265 8.66693 7.99819 8.6044 8.0156C8.54168 8.03296 8.49666 8.045 8.46863 8.05205L8.08331 8.18744C7.81931 8.28471 7.47372 8.45142 7.0468 8.6874C6.61978 8.92375 6.16667 9.20484 5.68747 9.53131C5.20827 9.85781 4.71346 10.2901 4.2031 10.8285C3.69268 11.3666 3.26386 11.9446 2.91663 12.5626C2.36107 11.9446 1.93058 11.2448 1.62505 10.4638ZM8.00013 14.8335C6.37507 14.8335 4.92369 14.3126 3.64586 13.271L3.80213 13.3856C4.04516 12.8507 4.40275 12.3368 4.87509 11.8439C5.34736 11.3509 5.80218 10.9531 6.23968 10.651C6.67717 10.3491 7.15283 10.0644 7.6668 9.7967C8.18066 9.52952 8.53117 9.35921 8.71885 9.28653C8.90639 9.21363 9.05572 9.1562 9.16682 9.11446L9.18754 9.10399H9.20852C9.88886 10.8887 10.3752 12.618 10.6668 14.2916C9.80564 14.6529 8.91689 14.8333 8.00013 14.8335ZM13.7504 11.6928C13.2365 12.488 12.594 13.1461 11.8234 13.6668C11.5384 12.0696 11.0942 10.4409 10.4899 8.78131C11.8718 8.5658 13.292 8.66668 14.7503 9.08319C14.5975 10.0277 14.2641 10.8977 13.7504 11.6928ZM14.7293 7.90629C14.6599 7.8925 14.573 7.87673 14.4689 7.85948C14.3647 7.84222 14.2379 7.82128 14.0885 7.79698C13.9394 7.77268 13.7725 7.75017 13.5886 7.7293C13.4045 7.70847 13.2084 7.68942 12.9999 7.67205C12.7916 7.65461 12.5694 7.64086 12.3334 7.63035C12.097 7.61999 11.8575 7.61473 11.6144 7.61473C11.3716 7.61473 11.1162 7.62178 10.8489 7.63557C10.5816 7.64925 10.323 7.67384 10.0731 7.7085C10.0521 7.67373 10.0261 7.61641 9.99489 7.53651C9.96369 7.45672 9.94093 7.39586 9.92746 7.35419C9.79535 7.06253 9.64251 6.73263 9.46873 6.36468C9.94793 6.1701 10.4047 5.94623 10.8389 5.69269C11.2728 5.43915 11.6198 5.2136 11.8804 5.01571C12.1408 4.81759 12.3873 4.60751 12.6199 4.38535C12.8527 4.16315 13.0035 4.00871 13.0732 3.92188C13.1427 3.8349 13.2087 3.74988 13.2711 3.66666L13.2816 3.65615C14.2954 4.89228 14.813 6.31582 14.8336 7.92708L14.7293 7.90629Z" fill="white"/>
</g>
<defs>
<clipPath id="clip0_995_512">
<rect width="16" height="16" fill="white"/>
</clipPath>
</defs>
</svg>
