<svg width="40" height="40" viewBox="0 0 40 40" fill="none" xmlns="http://www.w3.org/2000/svg">
<g clip-path="url(#clip0_463_573)">
<path d="M24.8954 0C16.5675 0 9.79224 6.75671 9.79224 15.0619C9.79224 23.3671 16.5675 30.1238 24.8954 30.1238C33.2234 30.1238 39.9986 23.3671 39.9986 15.0619C39.9985 6.75671 33.2233 0 24.8954 0ZM24.8954 27.7783C17.8608 27.7783 12.1377 22.0738 12.1377 15.0619C12.1377 8.05001 17.8608 2.34548 24.8954 2.34548C31.9301 2.34548 37.6531 8.05008 37.6531 15.0619C37.6531 22.0737 31.93 27.7783 24.8954 27.7783Z" fill="#58A771"/>
<path d="M26.0684 7.47174H23.7229V16.2346H32.5049V13.8891H26.0684V7.47174Z" fill="#58A771"/>
<path d="M1.12476 28.3416L7.39679 22.0872L9.0527 23.7478L2.78067 30.0022L1.12476 28.3416Z" fill="#58A771"/>
<path d="M0 20.5931L5.77397 14.8354L7.42988 16.496L1.65591 22.2537L0 20.5931Z" fill="#58A771"/>
<path d="M17.7925 38.3346L23.5665 32.5769L25.2224 34.2375L19.4484 39.9952L17.7925 38.3346Z" fill="#58A771"/>
<path d="M2.80347 35.5383L10.1334 28.2291L11.7893 29.8897L4.45938 37.1989L2.80347 35.5383Z" fill="#58A771"/>
<path d="M10.021 37.2125L16.293 30.9581L17.9489 32.6187L11.6769 38.8731L10.021 37.2125Z" fill="#58A771"/>
</g>
<defs>
<clipPath id="clip0_463_573">
<rect width="40" height="40" fill="white"/>
</clipPath>
</defs>
</svg>
