<svg width="40" height="40" viewBox="0 0 40 40" fill="none" xmlns="http://www.w3.org/2000/svg">
<g clip-path="url(#clip0_463_593)">
<path d="M18.4574 27.1301C18.7629 26.8247 18.7629 26.3303 18.4574 26.0248C18.1516 25.7202 17.6563 25.7202 17.3502 26.0248C17.045 26.3303 17.045 26.8247 17.3502 27.1301C17.6563 27.4347 18.1516 27.4347 18.4574 27.1301Z" fill="#58A771"/>
<path d="M14.7515 8.59131C14.7515 13.3286 18.6131 17.1829 23.3596 17.1829C28.1061 17.1829 31.9677 13.3286 31.9677 8.59131C31.9677 3.85407 28.1061 0 23.3596 0C18.6131 0 14.7515 3.85407 14.7515 8.59131ZM30.4028 8.59131C30.4028 12.4674 27.2432 15.6207 23.3596 15.6207C19.476 15.6207 16.3164 12.4674 16.3164 8.59131C16.3164 4.71558 19.476 1.5622 23.3596 1.5622C27.2432 1.5622 30.4028 4.71558 30.4028 8.59131Z" fill="#58A771"/>
<path d="M9.05311 39.769C9.35644 40.0742 9.85026 40.0775 10.1576 39.7754L13.9516 36.045C14.5962 35.4016 14.7922 34.4492 14.5087 33.6212L15.3248 32.8357C15.7642 32.4121 16.3427 32.1787 16.9543 32.1787H27.3576C29.2032 32.1787 30.9477 31.4713 32.2701 30.1868C32.3246 30.134 31.857 30.6836 39.3674 21.7249C40.4814 20.4096 40.3147 18.4345 38.9956 17.3215C37.6848 16.2189 35.7211 16.3773 34.6041 17.67L29.9863 22.4069C29.4032 21.6907 28.514 21.2442 27.5533 21.2442H18.8268C17.5851 20.7257 16.2675 20.4633 14.9081 20.4633C11.1397 20.4633 7.84928 22.2003 6.08345 25.4572C5.3395 25.3165 4.55489 25.5411 3.99043 26.1045L0.267643 29.831C-0.0362952 30.1352 -0.0369067 30.6275 0.26642 30.9326L9.05311 39.769ZM14.9077 22.0252C16.1064 22.0252 17.2653 22.266 18.3529 22.7408C18.452 22.7841 18.5587 22.8064 18.6666 22.8064H27.5533C28.4018 22.8064 29.1185 23.497 29.1185 24.3683C29.1185 25.2298 28.4165 25.9305 27.5533 25.9305H21.1684C20.7364 25.9305 20.386 26.2802 20.386 26.7115C20.386 27.143 20.7364 27.4924 21.1684 27.4924H27.5533C29.2794 27.4924 30.6835 26.091 30.6835 24.3683C30.6835 24.231 30.6737 24.0949 30.656 23.96C35.123 19.3772 35.7529 18.7332 35.7798 18.7012C36.3375 18.0441 37.3276 17.9608 37.9863 18.515C38.6455 19.0714 38.729 20.0589 38.1697 20.7196L31.1507 29.0943C30.1258 30.0763 28.7801 30.6168 27.3576 30.6168H16.9543C15.9348 30.6168 14.9698 31.0059 14.2378 31.7118L13.5727 32.3523L7.442 26.2339C8.87485 23.551 11.5635 22.0252 14.9077 22.0252ZM5.09794 27.2083C5.35601 26.9507 5.75229 26.9043 6.06693 27.0984C6.20239 27.1808 5.81345 26.8274 12.845 33.8355C13.1578 34.1477 13.141 34.6451 12.8493 34.9362L9.61482 38.1165L1.92554 30.3836L5.09794 27.2083Z" fill="#58A771"/>
<path d="M22.4205 3.90533V4.82056C21.5096 5.14282 20.8552 6.01105 20.8552 7.02942C20.8552 8.32123 21.9083 9.37256 23.2029 9.37256C23.6344 9.37256 23.9854 9.7229 23.9854 10.1535C23.9854 10.5841 23.6344 10.9345 23.2029 10.9345C22.8687 10.9345 22.5076 10.7248 22.1868 10.3436C21.9086 10.0134 21.4151 9.97101 21.0842 10.2484C20.7534 10.5261 20.7106 11.0187 20.9888 11.3489C21.4071 11.8454 21.8991 12.1915 22.4205 12.366V13.2776C22.4205 13.7091 22.7709 14.0585 23.2029 14.0585C23.635 14.0585 23.9854 13.7091 23.9854 13.2776V12.3624C24.8963 12.0398 25.5506 11.1716 25.5506 10.1535C25.5506 8.86139 24.4976 7.81037 23.2029 7.81037C22.7715 7.81037 22.4205 7.46002 22.4205 7.02942C22.4205 6.59882 22.7715 6.24817 23.2029 6.24817C23.4803 6.24817 23.7729 6.38947 24.0493 6.6565C24.36 6.95648 24.8553 6.94824 25.1559 6.63849C25.4565 6.32843 25.4482 5.83405 25.1379 5.53406C24.7407 5.15045 24.3432 4.93347 23.9854 4.81506V3.90533C23.9854 3.47382 23.635 3.12408 23.2029 3.12408C22.7709 3.12408 22.4205 3.47382 22.4205 3.90533Z" fill="#58A771"/>
</g>
<defs>
<clipPath id="clip0_463_593">
<rect width="40" height="40" fill="white"/>
</clipPath>
</defs>
</svg>
