<svg width="16" height="16" viewBox="0 0 16 16" fill="none" xmlns="http://www.w3.org/2000/svg">
<path d="M14.3999 14.4002V9.71219C14.3999 7.40819 13.9039 5.64819 11.2159 5.64819C9.91993 5.64819 9.05593 6.35219 8.70393 7.02419H8.67193V5.85619H6.12793V14.4002H8.78393V10.1602C8.78393 9.04019 8.99193 7.96819 10.3679 7.96819C11.7279 7.96819 11.7439 9.23219 11.7439 10.2242V14.3842H14.3999V14.4002Z" fill="white"/>
<path d="M1.80762 5.8562H4.46362V14.4002H1.80762V5.8562Z" fill="white"/>
<path d="M3.13561 1.6001C2.28761 1.6001 1.59961 2.2881 1.59961 3.1361C1.59961 3.9841 2.28761 4.6881 3.13561 4.6881C3.98361 4.6881 4.67161 3.9841 4.67161 3.1361C4.67161 2.2881 3.98361 1.6001 3.13561 1.6001Z" fill="white"/>
</svg>
