<svg width="143" height="26" viewBox="0 0 143 26" fill="none" xmlns="http://www.w3.org/2000/svg">
<path d="M15.52 19L9.36 5H6.58L0.44 19H3.12L3.98 17.02H11.96L12.82 19H15.52ZM7.98 7.84L11.06 14.96H4.88L7.98 7.84ZM25.7516 5L20.9516 13.06H20.8116L16.0116 5H13.2916L19.6116 15.6V19H22.1916V15.54L28.4916 5H25.7516ZM36.0939 19.3C40.8339 19.3 43.5939 16.06 43.5939 12C43.5939 7.94 40.8339 4.7 36.0939 4.7C31.3539 4.7 28.5939 7.94 28.5939 12C28.5939 16.06 31.3539 19.3 36.0939 19.3ZM36.0939 16.94C32.8939 16.94 31.1939 14.78 31.1939 12C31.1939 9.2 32.8939 7.06 36.0939 7.06C39.2939 7.06 40.9939 9.2 40.9939 12C40.9939 14.78 39.2939 16.94 36.0939 16.94ZM59.0552 19L52.8952 5H50.1152L43.9752 19H46.6552L47.5152 17.02H55.4952L56.3552 19H59.0552ZM51.5152 7.84L54.5952 14.96H48.4152L51.5152 7.84ZM67.3522 19C71.8922 19 74.4922 16.28 74.4922 12C74.4922 7.7 71.8922 5 67.3522 5H60.8322V19H67.3522ZM63.4122 7.28H67.2522C70.3722 7.28 71.8922 9 71.8922 12C71.8922 15 70.3722 16.72 67.2522 16.72H63.4122V7.28ZM88.5697 5H76.7697V19H88.5697V16.74H79.3497V13.12H88.1697V11.08H79.3497V7.26H88.5697V5ZM97.5783 19.3C102.318 19.3 105.078 16.06 105.078 12C105.078 7.94 102.318 4.7 97.5783 4.7C92.8383 4.7 90.0783 7.94 90.0783 12C90.0783 16.06 92.8383 19.3 97.5783 19.3ZM97.5783 16.94C94.3783 16.94 92.6783 14.78 92.6783 12C92.6783 9.2 94.3783 7.06 97.5783 7.06C100.778 7.06 102.478 9.2 102.478 12C102.478 14.78 100.778 16.94 97.5783 16.94ZM109.838 5H107.258V19H118.818V16.72H109.838V5ZM126.746 19.3C131.206 19.3 133.226 17.04 133.226 13.06V5H130.646V13.08C130.646 15.6 129.446 16.94 126.746 16.94C124.026 16.94 122.826 15.6 122.826 13.08V5H120.246V13.06C120.246 17.04 122.266 19.3 126.746 19.3Z" fill="white"/>
<rect x="137" y="13" width="6" height="6" fill="#EFC600"/>
</svg>
