<svg width="102" height="18" viewBox="0 0 102 18" fill="none" xmlns="http://www.w3.org/2000/svg">
<path d="M10.864 13L6.552 3.2H4.606L0.308 13H2.184L2.786 11.614H8.372L8.974 13H10.864ZM5.586 5.188L7.742 10.172H3.416L5.586 5.188ZM18.0261 3.2L14.6661 8.842H14.5681L11.2081 3.2H9.30409L13.7281 10.62V13H15.5341V10.578L19.9441 3.2H18.0261ZM25.2657 13.21C28.5837 13.21 30.5157 10.942 30.5157 8.1C30.5157 5.258 28.5837 2.99 25.2657 2.99C21.9477 2.99 20.0157 5.258 20.0157 8.1C20.0157 10.942 21.9477 13.21 25.2657 13.21ZM25.2657 11.558C23.0257 11.558 21.8357 10.046 21.8357 8.1C21.8357 6.14 23.0257 4.642 25.2657 4.642C27.5057 4.642 28.6957 6.14 28.6957 8.1C28.6957 10.046 27.5057 11.558 25.2657 11.558ZM41.3386 13L37.0266 3.2H35.0806L30.7826 13H32.6586L33.2606 11.614H38.8466L39.4486 13H41.3386ZM36.0606 5.188L38.2166 10.172H33.8906L36.0606 5.188ZM47.1465 13C50.3245 13 52.1445 11.096 52.1445 8.1C52.1445 5.09 50.3245 3.2 47.1465 3.2H42.5825V13H47.1465ZM44.3885 4.796H47.0765C49.2605 4.796 50.3245 6 50.3245 8.1C50.3245 10.2 49.2605 11.404 47.0765 11.404H44.3885V4.796ZM61.9988 3.2H53.7388V13H61.9988V11.418H55.5448V8.884H61.7188V7.456H55.5448V4.782H61.9988V3.2ZM68.3048 13.21C71.6228 13.21 73.5548 10.942 73.5548 8.1C73.5548 5.258 71.6228 2.99 68.3048 2.99C64.9868 2.99 63.0548 5.258 63.0548 8.1C63.0548 10.942 64.9868 13.21 68.3048 13.21ZM68.3048 11.558C66.0648 11.558 64.8748 10.046 64.8748 8.1C64.8748 6.14 66.0648 4.642 68.3048 4.642C70.5448 4.642 71.7348 6.14 71.7348 8.1C71.7348 10.046 70.5448 11.558 68.3048 11.558ZM76.8866 3.2H75.0806V13H83.1726V11.404H76.8866V3.2ZM88.7224 13.21C91.8444 13.21 93.2584 11.628 93.2584 8.842V3.2H91.4524V8.856C91.4524 10.62 90.6124 11.558 88.7224 11.558C86.8184 11.558 85.9784 10.62 85.9784 8.856V3.2H84.1724V8.842C84.1724 11.628 85.5864 13.21 88.7224 13.21Z" fill="black"/>
<rect x="97" y="8" width="5" height="5" fill="#EFC600"/>
</svg>
