<svg width="1040" height="37" viewBox="0 0 1040 37" fill="none" xmlns="http://www.w3.org/2000/svg">
<rect x="19.232" y="19.2116" width="1.42308" height="1001.63" transform="rotate(-90 19.232 19.2116)" stroke="url(#paint0_linear_497_44)" stroke-width="1.42308"/>
<ellipse cx="18.5205" cy="18.5" rx="18.5" ry="18.5205" transform="rotate(-90 18.5205 18.5)" fill="#37BD6A" fill-opacity="0.2"/>
<ellipse cx="18.5207" cy="18.5005" rx="14.0627" ry="14.0783" transform="rotate(-90 18.5207 18.5005)" fill="#37BD6A" fill-opacity="0.3"/>
<ellipse cx="18.5206" cy="18.5002" rx="9.61683" ry="9.62751" transform="rotate(-90 18.5206 18.5002)" fill="#37BD6A" fill-opacity="0.4"/>
<ellipse cx="18.5204" cy="18.5001" rx="4.93536" ry="4.94084" transform="rotate(-90 18.5204 18.5001)" fill="#37BD6A"/>
<ellipse cx="269.26" cy="18.5" rx="18.5" ry="18.5205" transform="rotate(-90 269.26 18.5)" fill="#FEAC56" fill-opacity="0.2"/>
<ellipse cx="269.26" cy="18.5005" rx="14.0627" ry="14.0783" transform="rotate(-90 269.26 18.5005)" fill="#FEAC56" fill-opacity="0.3"/>
<ellipse cx="269.26" cy="18.5002" rx="9.61683" ry="9.62751" transform="rotate(-90 269.26 18.5002)" fill="#FEAC56" fill-opacity="0.4"/>
<ellipse cx="269.26" cy="18.5001" rx="4.93536" ry="4.94084" transform="rotate(-90 269.26 18.5001)" fill="#FEAC56"/>
<ellipse cx="520" cy="18.5" rx="18.5" ry="18.5205" transform="rotate(-90 520 18.5)" fill="#FF7253" fill-opacity="0.2"/>
<ellipse cx="520" cy="18.5005" rx="14.0627" ry="14.0783" transform="rotate(-90 520 18.5005)" fill="#FF7253" fill-opacity="0.3"/>
<ellipse cx="520" cy="18.5002" rx="9.61683" ry="9.62751" transform="rotate(-90 520 18.5002)" fill="#FF7253" fill-opacity="0.4"/>
<ellipse cx="520" cy="18.5001" rx="4.93536" ry="4.94084" transform="rotate(-90 520 18.5001)" fill="#FF7253"/>
<ellipse cx="770.74" cy="18.5" rx="18.5" ry="18.5205" transform="rotate(-90 770.74 18.5)" fill="#9C56F5" fill-opacity="0.2"/>
<ellipse cx="770.74" cy="18.5005" rx="14.0627" ry="14.0783" transform="rotate(-90 770.74 18.5005)" fill="#9C56F5" fill-opacity="0.3"/>
<ellipse cx="770.74" cy="18.5002" rx="9.61683" ry="9.62751" transform="rotate(-90 770.74 18.5002)" fill="#9C56F5" fill-opacity="0.4"/>
<ellipse cx="770.74" cy="18.5001" rx="4.93536" ry="4.94084" transform="rotate(-90 770.74 18.5001)" fill="#9C56F5"/>
<ellipse cx="1021.48" cy="18.5" rx="18.5" ry="18.5205" transform="rotate(-90 1021.48 18.5)" fill="#3C66FC" fill-opacity="0.2"/>
<ellipse cx="1021.48" cy="18.5005" rx="14.0627" ry="14.0783" transform="rotate(-90 1021.48 18.5005)" fill="#3C66FC" fill-opacity="0.3"/>
<ellipse cx="1021.48" cy="18.5002" rx="9.61683" ry="9.62751" transform="rotate(-90 1021.48 18.5002)" fill="#3C66FC" fill-opacity="0.4"/>
<ellipse cx="1021.48" cy="18.5001" rx="4.93536" ry="4.94084" transform="rotate(-90 1021.48 18.5001)" fill="#3C66FC"/>
<defs>
<linearGradient id="paint0_linear_497_44" x1="19.9436" y1="19.9231" x2="19.9435" y2="1022.97" gradientUnits="userSpaceOnUse">
<stop stop-color="#37BD6A"/>
<stop offset="0.317708" stop-color="#FEAC56"/>
<stop offset="0.5" stop-color="#FF7253"/>
<stop offset="0.765625" stop-color="#9C56F5"/>
<stop offset="1" stop-color="#3C66FC"/>
</linearGradient>
</defs>
</svg>
