<svg width="40" height="40" viewBox="0 0 40 40" fill="none" xmlns="http://www.w3.org/2000/svg">
<path d="M20 1.16998L5 6.62498V19.82C5.0036 22.3953 5.61456 24.9335 6.78327 27.2283C7.95199 29.5232 9.64549 31.51 11.7262 33.0275L20 39.045L28.2738 33.0275C30.3545 31.51 32.048 29.5232 33.2167 27.2283C34.3854 24.9335 34.9964 22.3953 35 19.82V6.62498L20 1.16998ZM32.5 19.82C32.4965 22.001 31.979 24.1506 30.9893 26.0941C29.9996 28.0377 28.5656 29.7206 26.8038 31.0062L20 35.955L13.1962 31.0062C11.4344 29.7206 10.0004 28.0377 9.01073 26.0941C8.02103 24.1506 7.50345 22.001 7.5 19.82V8.37498L20 3.82998L32.5 8.37498V19.82Z" fill="#58A771"/>
<path d="M14.6337 16.9288L12.8662 18.6963L18.4375 24.2675L27.1337 15.5713L25.3662 13.8038L18.4375 20.7325L14.6337 16.9288Z" fill="#58A771"/>
</svg>
